<svg xmlns="http://www.w3.org/2000/svg" width="128" height="128" viewBox="0 0 33.866666 33.866668">
    <g id="fill" style="opacity:1;" transform="matrix(0.2575943,0,0,0.23849115,-9.1120023,-50.435759)">
        <path id="path8251-2-6-5-9-2" d="m 156.78907,230.06236 a 54.165703,13.707579 0 0 1 -54.1657,13.70758 54.165703,13.707579 0 0 1 -54.165706,-13.70758 54.165703,13.707579 0 0 1 54.165706,-13.70758 54.165703,13.707579 0 0 1 54.1657,13.70758 z M 48.404512,229.55428 v 0.2202 c 0.01214,-0.0734 0.02647,-0.14685 0.04327,-0.2202 z m 108.290078,0 c 0.0147,0.083 0.0269,0.16638 0.0356,0.24943 2.4e-4,7.57053 -24.25098,13.70738 -54.16604,13.70738 -29.849952,-7.9e-4 -54.071017,-6.11278 -54.159668,-13.6668 v 31.89855 a 54.184263,15.828606 0 0 1 -0.183897,-1.1851 v 37.13064 a 54.184263,15.828607 0 0 0 -0.0057,0.0269 54.184263,15.828607 0 0 0 0.0057,0.0388 v 0.45411 h 0.04136 v 36.24689 a 54.184263,15.828607 0 0 0 -0.0057,0.0269 54.184263,15.828607 0 0 0 0.0057,0.0388 v 0.45411 h 0.05536 a 54.184263,15.828607 0 0 0 54.124675,15.33644 54.184263,15.828607 0 0 0 54.09986,-15.33644 h 0.0891 v -37.98873 h -0.0414 a 54.184263,15.828606 0 0 1 0.035,0.28702 54.184263,15.828606 0 0 1 -0.035,0.20408 v -0.4911 -34.41793 c 0.0186,-0.0385 0.0395,-0.0767 0.0573,-0.11517 0.18386,-10.752 0.0891,-21.98037 0.0891,-32.89866 z M 48.220615,260.2188 v 0.25123 a 54.184263,15.828606 0 0 1 0.04327,-0.25123 z"/>
    </g>
    <g transform="matrix(0.31703209,0,0,0.2753999,-15.226615,0.59173245)">
        <path id="bottom" d="m 58.574418,71.818443 v 0.21756 a 44.004366,13.707578 0 0 1 0.03481,-0.21756 z m 87.975532,5.3e-4 a 44.004366,13.707578 0 0 1 0.0281,0.24857 44.004366,13.707578 0 0 1 -44.00433,13.70766 44.004366,13.707578 0 0 1 -43.999312,-13.66323 v 32.155137 a 44.004366,13.707579 0 0 0 -0.0045,0.0233 44.004366,13.707579 0 0 0 0.0045,0.0336 v 0.39325 h 0.04496 a 44.004366,13.707579 0 0 0 43.955642,13.28134 44.004366,13.707579 0 0 0 43.93593,-13.28136 h 0.0726 V 71.818963 Z" style="opacity:0.2;fill:black"/>
        <path id="mid" d="m 58.540832,39.978483 v 0.21756 a 44.004366,13.707578 0 0 1 0.03481,-0.21756 z m 87.975528,5.3e-4 a 44.004366,13.707578 0 0 1 0.0281,0.24857 44.004366,13.707578 0 0 1 -44.00432,13.70769 44.004366,13.707578 0 0 1 -43.99931,-13.66326 v 32.15514 a 44.004366,13.707579 0 0 0 -0.0045,0.0233 44.004366,13.707579 0 0 0 0.0045,0.0336 v 0.39325 h 0.04487 a 44.004366,13.707579 0 0 0 43.95565,13.28136 44.004366,13.707579 0 0 0 43.93592,-13.28136 h 0.0726 v -32.8983 z" style="opacity:0.3;fill:black"/>
        <g transform="matrix(0.81212445,0,0,0.86600028,19.379501,-185.37111)">
            <path id="top" d="m 182.94531,867.60742 v 0.83203 c 0.0459,-0.27745 0.10057,-0.5548 0.16407,-0.83203 z m 409.28711,0 c 0.0555,0.31369 0.0998,0.62751 0.13281,0.94141 9.1e-4,28.61302 -91.65592,51.80858 -204.7207,51.80859 -112.81873,-0.003 -204.36415,-23.10367 -204.69922,-51.6543 v 121.54493 c -0.006,0.0293 -0.0118,0.0586 -0.0176,0.0879 0.006,0.0417 0.0115,0.0833 0.0176,0.125 v 1.48633 h 0.20899 c 9.08883,25.83352 97.38326,56.20372 207.91946,56.22112 110.50057,-0.03 187.36844,-26.7045 200.97702,-56.22112 0.69493,-40.63748 0.33789,-83.07388 0.33789,-124.33986 z" style="opacity:0.4;fill:black" transform="scale(0.26458333)"/>
            <ellipse id="cap" cx="102.62337" cy="230.06236" rx="54.165703" ry="13.707579" style="opacity:0.5;fill:black"/>
        </g>
    </g>
</svg>
